<svg xmlns="http://www.w3.org/2000/svg" viewBox="0 0 500 500"><defs><style>.cls-1{fill:#fff;}</style></defs><g id="Calque_2" data-name="Calque 2"><g id="Calque_1-2" data-name="Calque 1"><path class="cls-1" d="M250,10a240.06,240.06,0,0,1,93.42,461.14A240.06,240.06,0,0,1,156.58,28.86,238.42,238.42,0,0,1,250,10m0-10C111.93,0,0,111.93,0,250S111.93,500,250,500,500,388.07,500,250,388.07,0,250,0Z"/><path class="cls-1" d="M130,179.15q-17.89,11.44-17.9,28.34,0,15.4,13.92,25.35,18.39,12.93,62.88,12.92,20.93,0,53.2-3.78l19.69-34.64A443.54,443.54,0,0,1,199.1,212q-33.79,0-48-8T130,179.15Z"/><path class="cls-1" d="M103.17,369.54q-8.2,6-8.21,14.66,0,9.19,8.2,14.67,12.93,8.94,37.53,8.95,37.78,0,96.16-26.61Q175,360.53,135.49,360.59,115.09,360.59,103.17,369.54Z"/><path class="cls-1" d="M297.56,353.54q60.15-27.41,60.11-53.06,0-8-7-14.44t-17.86-6.47a288,288,0,0,0-32.77,2.3q-54.21,5.78-71.21,5.77L206.65,326.5q23.44,5.14,38.24,9.53T297.56,353.54Z"/><path class="cls-1" d="M355.14,69.18,301,161.12l43-2.84q19.39-.75,45.12,5.46T433.36,183a100.56,100.56,0,0,1,29.08,30.82A74.94,74.94,0,0,1,473,251.64c0-.55,0-1.09,0-1.64A222.92,222.92,0,0,0,361.13,56.62C360.59,59.21,358.6,63.38,355.14,69.18Z"/><path class="cls-1" d="M212.52,167q16.68,0,75-5l26.32-46.3q-39-19.35-60.77-25.92t-38.45-6.58q-23.31,0-38,13.18t-14.63,30.82q0,17.4,12.55,28.58T212.52,167Z"/><path class="cls-1" d="M417.29,328.33Q435,305,435,276.86q0-18.39-11.09-36.18t-34-28.34Q366.92,201.77,337,201.77q-24.18,0-61.83,4.59L255.39,241q59.33-5.86,82.41-5.86,31.56,0,48.21,14.31t16.65,34.23q0,17.41-16.28,33.85t-69.92,40.95L367,371.84Q399.62,351.71,417.29,328.33Z"/><path class="cls-1" d="M440.1,330.14Q407.19,368,323,410.05q-29.61-10.95-68.84-23-70,32-115,32-32.05,0-49.33-14c-.43-.35-.83-.7-1.24-1A222.34,222.34,0,0,0,250,473c120.22,0,218.2-95.14,222.81-214.23Q470.56,295.05,440.1,330.14Z"/><path class="cls-1" d="M72.59,372.52q0-19.62,20.88-35.91t61.89-16.28q16.15,0,40,4l20.25-35.63-36.37,2.83q-12.93.24-34.8-3.61t-35.91-12.55q-14-8.7-21-21.37a54.53,54.53,0,0,1-7-26.6q0-22.12,15.65-39.27,9.94-10.93,32.81-19.63l-.25-3q0-23.11,20.54-53.06t75-73.94L336.45,76l8.3-14.64c3-5.3,5.14-8.56,6.4-9.81l.22-.2A222,222,0,0,0,250,27C126.84,27,27,126.84,27,250A222.12,222.12,0,0,0,78.52,392.56,36.6,36.6,0,0,1,72.59,372.52Z"/></g></g></svg>