<?xml version="1.0" encoding="utf-8"?>
<!-- Generator: Adobe Illustrator 26.0.3, SVG Export Plug-In . SVG Version: 6.00 Build 0)  -->
<svg version="1.1" id="Calque_1" xmlns="http://www.w3.org/2000/svg" xmlns:xlink="http://www.w3.org/1999/xlink" x="0px" y="0px"
	 viewBox="0 0 500 500" style="enable-background:new 0 0 500 500;" xml:space="preserve">
<style type="text/css">
	.st0{fill:#23282D;}
	.st1{fill:#FFFFFF;}
</style>
<g>
	<g>
		<path d="M-790,10c32.4,0,63.8,6.3,93.4,18.9c28.6,12.1,54.2,29.4,76.3,51.4c22,22,39.4,47.7,51.4,76.3
			c12.5,29.6,18.9,61,18.9,93.4s-6.3,63.8-18.9,93.4c-12.1,28.6-29.4,54.2-51.4,76.3c-22,22-47.7,39.4-76.3,51.4
			c-29.6,12.5-61,18.9-93.4,18.9s-63.8-6.3-93.4-18.9c-28.6-12.1-54.2-29.4-76.3-51.4c-22-22-39.4-47.7-51.4-76.3
			c-12.5-29.6-18.9-61-18.9-93.4s6.3-63.8,18.9-93.4c12.1-28.6,29.4-54.2,51.4-76.3c22-22,47.7-39.4,76.3-51.4
			C-853.8,16.3-822.4,10-790,10 M-790,0c-138.1,0-250,111.9-250,250s111.9,250,250,250s250-111.9,250-250S-651.9,0-790,0L-790,0z"/>
	</g>
	<g>
		<g>
			<path d="M-910,179.2c-11.9,7.6-17.9,17.1-17.9,28.3c0,10.3,4.6,18.7,13.9,25.4c12.3,8.6,33.2,12.9,62.9,12.9
				c13.9,0,31.7-1.3,53.2-3.8l19.7-34.6c-21.6,3.1-42.5,4.6-62.7,4.6c-22.5,0-38.5-2.6-48-8C-898.3,198.7-905.4,190.4-910,179.2z"/>
		</g>
		<g>
			<path d="M-936.8,369.5c-5.5,4-8.2,8.9-8.2,14.7c0,6.1,2.7,11,8.2,14.7c8.6,6,21.1,8.9,37.5,8.9c25.2,0,57.2-8.9,96.2-26.6
				c-41.2-13.8-75-20.7-101.4-20.6C-918.1,360.6-928.9,363.6-936.8,369.5z"/>
		</g>
		<g>
			<path d="M-742.4,353.5c40.1-18.3,60.1-36,60.1-53.1c0-5.3-2.3-10.1-7-14.4c-4.7-4.3-10.6-6.5-17.9-6.5c-8.9,0-19.8,0.8-32.8,2.3
				c-36.1,3.8-59.9,5.8-71.2,5.8l-22.2,38.9c15.6,3.4,28.4,6.6,38.2,9.5C-785.3,339-767.7,344.8-742.4,353.5z"/>
		</g>
		<g>
			<path d="M-684.9,69.2l-54.2,91.9l43-2.8c12.9-0.5,28,1.3,45.1,5.5c17.1,4.1,31.9,10.6,44.2,19.3c12.3,8.7,22,19,29.1,30.8
				c6.8,11.5,10.3,24.1,10.5,37.8c0-0.5,0-1.1,0-1.6c0-82.7-45-154.9-111.9-193.4C-679.4,59.2-681.4,63.4-684.9,69.2z"/>
		</g>
		<g>
			<path d="M-827.5,167c11.1,0,36.1-1.7,75-5l26.3-46.3c-26-12.9-46.2-21.5-60.8-25.9s-27.4-6.6-38.4-6.6
				c-15.5,0-28.2,4.4-37.9,13.2c-9.8,8.8-14.6,19.1-14.6,30.8c0,11.6,4.2,21.1,12.6,28.6C-857,163.2-844.4,167-827.5,167z"/>
		</g>
		<g>
			<path d="M-622.7,328.3c11.8-15.6,17.7-32.7,17.7-51.5c0-12.3-3.7-24.3-11.1-36.2c-7.4-11.9-18.7-21.3-34-28.3
				c-15.3-7-32.9-10.6-52.9-10.6c-16.1,0-36.7,1.5-61.8,4.6l-19.8,34.7c39.5-3.9,67-5.9,82.4-5.9c21,0,37.1,4.8,48.2,14.3
				c11.1,9.5,16.7,21,16.7,34.2c0,11.6-5.4,22.9-16.3,33.9c-10.9,11-34.2,24.6-69.9,41l50.5,13.3
				C-651.3,358.4-634.5,343.9-622.7,328.3z"/>
		</g>
		<g>
			<path d="M-599.9,330.1c-21.9,25.3-61,51.9-117.1,79.9c-19.7-7.3-42.7-15-68.8-23c-46.6,21.3-85,32-115,32
				c-21.4,0-37.8-4.7-49.3-14c-0.4-0.3-0.8-0.7-1.2-1c40.6,42.6,97.9,69.1,161.4,69.1c120.2,0,218.2-95.1,222.8-214.2
				C-568.7,283-579.6,306.7-599.9,330.1z"/>
		</g>
		<g>
			<path d="M-967.4,372.5c0-13.1,7-25.1,20.9-35.9c13.9-10.8,34.5-16.3,61.9-16.3c10.8,0,24.1,1.3,40,4l20.2-35.6l-36.4,2.8
				c-8.6,0.2-20.2-1-34.8-3.6c-14.6-2.6-26.6-6.7-35.9-12.6c-9.4-5.8-16.4-12.9-21-21.4c-4.6-8.5-7-17.3-7-26.6
				c0-14.7,5.2-27.8,15.7-39.3c6.6-7.3,17.6-13.8,32.8-19.6l-0.2-3c0-15.4,6.8-33.1,20.5-53.1c13.7-20,38.7-44.6,75-73.9L-703.6,76
				l8.3-14.6c3-5.3,5.1-8.6,6.4-9.8c0.1-0.1,0.1-0.1,0.2-0.2C-719,35.8-753.5,27-790,27c-123.2,0-223,99.8-223,223
				c0,54.2,19.4,103.9,51.5,142.6C-965.4,386.4-967.4,379.7-967.4,372.5z"/>
		</g>
	</g>
</g>
<g>
	<g>
		<path class="st0" d="M-270,10c32.4,0,63.8,6.3,93.4,18.9c28.6,12.1,54.2,29.4,76.3,51.4c22,22,39.4,47.7,51.4,76.3
			c12.5,29.6,18.9,61,18.9,93.4s-6.3,63.8-18.9,93.4c-12.1,28.6-29.4,54.2-51.4,76.3c-22,22-47.7,39.4-76.3,51.4
			c-29.6,12.5-61,18.9-93.4,18.9s-63.8-6.3-93.4-18.9c-28.6-12.1-54.2-29.4-76.3-51.4c-22-22-39.4-47.7-51.4-76.3
			c-12.5-29.6-18.9-61-18.9-93.4s6.3-63.8,18.9-93.4c12.1-28.6,29.4-54.2,51.4-76.3c22-22,47.7-39.4,76.3-51.4
			C-333.8,16.3-302.4,10-270,10 M-270,0c-138.1,0-250,111.9-250,250s111.9,250,250,250S-20,388.1-20,250S-131.9,0-270,0L-270,0z"/>
	</g>
	<g>
		<g>
			<path class="st0" d="M-390,179.2c-11.9,7.6-17.9,17.1-17.9,28.3c0,10.3,4.6,18.7,13.9,25.4c12.3,8.6,33.2,12.9,62.9,12.9
				c13.9,0,31.7-1.3,53.2-3.8l19.7-34.6c-21.6,3.1-42.5,4.6-62.7,4.6c-22.5,0-38.5-2.6-48-8C-378.3,198.7-385.4,190.4-390,179.2z"/>
		</g>
		<g>
			<path class="st0" d="M-416.8,369.5c-5.5,4-8.2,8.9-8.2,14.7c0,6.1,2.7,11,8.2,14.7c8.6,6,21.1,8.9,37.5,8.9
				c25.2,0,57.2-8.9,96.2-26.6c-41.2-13.8-75-20.7-101.4-20.6C-398.1,360.6-408.9,363.6-416.8,369.5z"/>
		</g>
		<g>
			<path class="st0" d="M-222.4,353.5c40.1-18.3,60.1-36,60.1-53.1c0-5.3-2.3-10.1-7-14.4c-4.7-4.3-10.6-6.5-17.9-6.5
				c-8.9,0-19.8,0.8-32.8,2.3c-36.1,3.8-59.9,5.8-71.2,5.8l-22.2,38.9c15.6,3.4,28.4,6.6,38.2,9.5
				C-265.3,339-247.7,344.8-222.4,353.5z"/>
		</g>
		<g>
			<path class="st0" d="M-164.9,69.2l-54.2,91.9l43-2.8c12.9-0.5,28,1.3,45.1,5.5c17.1,4.1,31.9,10.6,44.2,19.3
				c12.3,8.7,22,19,29.1,30.8c6.8,11.5,10.3,24.1,10.5,37.8c0-0.5,0-1.1,0-1.6c0-82.7-45-154.9-111.9-193.4
				C-159.4,59.2-161.4,63.4-164.9,69.2z"/>
		</g>
		<g>
			<path class="st0" d="M-307.5,167c11.1,0,36.1-1.7,75-5l26.3-46.3c-26-12.9-46.2-21.5-60.8-25.9s-27.4-6.6-38.4-6.6
				c-15.5,0-28.2,4.4-37.9,13.2c-9.8,8.8-14.6,19.1-14.6,30.8c0,11.6,4.2,21.1,12.6,28.6C-337,163.2-324.4,167-307.5,167z"/>
		</g>
		<g>
			<path class="st0" d="M-102.7,328.3c11.8-15.6,17.7-32.7,17.7-51.5c0-12.3-3.7-24.3-11.1-36.2c-7.4-11.9-18.7-21.3-34-28.3
				c-15.3-7-32.9-10.6-52.9-10.6c-16.1,0-36.7,1.5-61.8,4.6l-19.8,34.7c39.5-3.9,67-5.9,82.4-5.9c21,0,37.1,4.8,48.2,14.3
				c11.1,9.5,16.7,21,16.7,34.2c0,11.6-5.4,22.9-16.3,33.9c-10.9,11-34.2,24.6-69.9,41l50.5,13.3
				C-131.3,358.4-114.5,343.9-102.7,328.3z"/>
		</g>
		<g>
			<path class="st0" d="M-79.9,330.1c-21.9,25.3-61,51.9-117.1,79.9c-19.7-7.3-42.7-15-68.8-23c-46.6,21.3-85,32-115,32
				c-21.4,0-37.8-4.7-49.3-14c-0.4-0.3-0.8-0.7-1.2-1c40.6,42.6,97.9,69.1,161.4,69.1c120.2,0,218.2-95.1,222.8-214.2
				C-48.7,283-59.6,306.7-79.9,330.1z"/>
		</g>
		<g>
			<path class="st0" d="M-447.4,372.5c0-13.1,7-25.1,20.9-35.9c13.9-10.8,34.5-16.3,61.9-16.3c10.8,0,24.1,1.3,40,4l20.2-35.6
				l-36.4,2.8c-8.6,0.2-20.2-1-34.8-3.6c-14.6-2.6-26.6-6.7-35.9-12.6c-9.4-5.8-16.4-12.9-21-21.4c-4.6-8.5-7-17.3-7-26.6
				c0-14.7,5.2-27.8,15.7-39.3c6.6-7.3,17.6-13.8,32.8-19.6l-0.2-3c0-15.4,6.8-33.1,20.5-53.1c13.7-20,38.7-44.6,75-73.9L-183.6,76
				l8.3-14.6c3-5.3,5.1-8.6,6.4-9.8c0.1-0.1,0.1-0.1,0.2-0.2C-199,35.8-233.5,27-270,27c-123.2,0-223,99.8-223,223
				c0,54.2,19.4,103.9,51.5,142.6C-445.4,386.4-447.4,379.7-447.4,372.5z"/>
		</g>
	</g>
</g>
<g>
	<g>
		<path class="st1" d="M250,10c32.4,0,63.8,6.3,93.4,18.9c28.6,12.1,54.2,29.4,76.3,51.4c22,22,39.4,47.7,51.4,76.3
			c12.5,29.6,18.9,61,18.9,93.4s-6.3,63.8-18.9,93.4c-12.1,28.6-29.4,54.2-51.4,76.3c-22,22-47.7,39.4-76.3,51.4
			c-29.6,12.5-61,18.9-93.4,18.9s-63.8-6.3-93.4-18.9c-28.6-12.1-54.2-29.4-76.3-51.4c-22-22-39.4-47.7-51.4-76.3
			C16.3,313.8,10,282.4,10,250s6.3-63.8,18.9-93.4c12.1-28.6,29.4-54.2,51.4-76.3c22-22,47.7-39.4,76.3-51.4
			C186.2,16.3,217.6,10,250,10 M250,0C111.9,0,0,111.9,0,250s111.9,250,250,250s250-111.9,250-250S388.1,0,250,0L250,0z"/>
	</g>
	<g>
		<g>
			<path class="st1" d="M130,179.2c-11.9,7.6-17.9,17.1-17.9,28.3c0,10.3,4.6,18.7,13.9,25.4c12.3,8.6,33.2,12.9,62.9,12.9
				c13.9,0,31.7-1.3,53.2-3.8l19.7-34.6c-21.6,3.1-42.5,4.6-62.7,4.6c-22.5,0-38.5-2.6-48-8C141.7,198.7,134.6,190.4,130,179.2z"/>
		</g>
		<g>
			<path class="st1" d="M103.2,369.5c-5.5,4-8.2,8.9-8.2,14.7c0,6.1,2.7,11,8.2,14.7c8.6,6,21.1,8.9,37.5,8.9
				c25.2,0,57.2-8.9,96.2-26.6c-41.2-13.8-75-20.7-101.4-20.6C121.9,360.6,111.1,363.6,103.2,369.5z"/>
		</g>
		<g>
			<path class="st1" d="M297.6,353.5c40.1-18.3,60.1-36,60.1-53.1c0-5.3-2.3-10.1-7-14.4c-4.7-4.3-10.6-6.5-17.9-6.5
				c-8.9,0-19.8,0.8-32.8,2.3c-36.1,3.8-59.9,5.8-71.2,5.8l-22.2,38.9c15.6,3.4,28.4,6.6,38.2,9.5
				C254.7,339,272.3,344.8,297.6,353.5z"/>
		</g>
		<g>
			<path class="st1" d="M355.1,69.2L301,161.1l43-2.8c12.9-0.5,28,1.3,45.1,5.5c17.1,4.1,31.9,10.6,44.2,19.3
				c12.3,8.7,22,19,29.1,30.8c6.8,11.5,10.3,24.1,10.5,37.8c0-0.5,0-1.1,0-1.6c0-82.7-45-154.9-111.9-193.4
				C360.6,59.2,358.6,63.4,355.1,69.2z"/>
		</g>
		<g>
			<path class="st1" d="M212.5,167c11.1,0,36.1-1.7,75-5l26.3-46.3c-26-12.9-46.2-21.5-60.8-25.9s-27.4-6.6-38.4-6.6
				c-15.5,0-28.2,4.4-37.9,13.2c-9.8,8.8-14.6,19.1-14.6,30.8c0,11.6,4.2,21.1,12.6,28.6C183,163.2,195.6,167,212.5,167z"/>
		</g>
		<g>
			<path class="st1" d="M417.3,328.3c11.8-15.6,17.7-32.7,17.7-51.5c0-12.3-3.7-24.3-11.1-36.2c-7.4-11.9-18.7-21.3-34-28.3
				c-15.3-7-32.9-10.6-52.9-10.6c-16.1,0-36.7,1.5-61.8,4.6L255.4,241c39.5-3.9,67-5.9,82.4-5.9c21,0,37.1,4.8,48.2,14.3
				c11.1,9.5,16.7,21,16.7,34.2c0,11.6-5.4,22.9-16.3,33.9c-10.9,11-34.2,24.6-69.9,41l50.5,13.3
				C388.7,358.4,405.5,343.9,417.3,328.3z"/>
		</g>
		<g>
			<path class="st1" d="M440.1,330.1c-21.9,25.3-61,51.9-117.1,79.9c-19.7-7.3-42.7-15-68.8-23c-46.6,21.3-85,32-115,32
				c-21.4,0-37.8-4.7-49.3-14c-0.4-0.3-0.8-0.7-1.2-1C129.2,446.5,186.5,473,250,473c120.2,0,218.2-95.1,222.8-214.2
				C471.3,283,460.4,306.7,440.1,330.1z"/>
		</g>
		<g>
			<path class="st1" d="M72.6,372.5c0-13.1,7-25.1,20.9-35.9c13.9-10.8,34.5-16.3,61.9-16.3c10.8,0,24.1,1.3,40,4l20.2-35.6
				l-36.4,2.8c-8.6,0.2-20.2-1-34.8-3.6c-14.6-2.6-26.6-6.7-35.9-12.6c-9.4-5.8-16.4-12.9-21-21.4c-4.6-8.5-7-17.3-7-26.6
				c0-14.7,5.2-27.8,15.7-39.3c6.6-7.3,17.6-13.8,32.8-19.6l-0.2-3c0-15.4,6.8-33.1,20.5-53.1c13.7-20,38.7-44.6,75-73.9L336.4,76
				l8.3-14.6c3-5.3,5.1-8.6,6.4-9.8c0.1-0.1,0.1-0.1,0.2-0.2C321,35.8,286.5,27,250,27C126.8,27,27,126.8,27,250
				c0,54.2,19.4,103.9,51.5,142.6C74.6,386.4,72.6,379.7,72.6,372.5z"/>
		</g>
	</g>
</g>
<g>
	<g>
		<path d="M-790,536c32.4,0,63.8,6.3,93.4,18.9c28.6,12.1,54.2,29.4,76.3,51.4c22,22,39.4,47.7,51.4,76.3
			c12.5,29.6,18.9,61,18.9,93.4s-6.3,63.8-18.9,93.4c-12.1,28.6-29.4,54.2-51.4,76.3c-22,22-47.7,39.4-76.3,51.4
			c-29.6,12.5-61,18.9-93.4,18.9s-63.8-6.3-93.4-18.9c-28.6-12.1-54.2-29.4-76.3-51.4c-22-22-39.4-47.7-51.4-76.3
			c-12.5-29.6-18.9-61-18.9-93.4s6.3-63.8,18.9-93.4c12.1-28.6,29.4-54.2,51.4-76.3c22-22,47.7-39.4,76.3-51.4
			C-853.8,542.3-822.4,536-790,536 M-790,526c-138.1,0-250,111.9-250,250s111.9,250,250,250s250-111.9,250-250S-651.9,526-790,526
			L-790,526z"/>
	</g>
	<g>
		<g>
			<path d="M-910,705.2c-11.9,7.6-17.9,17.1-17.9,28.3c0,10.3,4.6,18.7,13.9,25.4c12.3,8.6,33.2,12.9,62.9,12.9
				c13.9,0,31.7-1.3,53.2-3.8l19.7-34.6c-21.6,3.1-42.5,4.6-62.7,4.6c-22.5,0-38.5-2.6-48-8C-898.3,724.7-905.4,716.4-910,705.2z"/>
		</g>
		<g>
			<path d="M-936.8,895.5c-5.5,4-8.2,8.9-8.2,14.7c0,6.1,2.7,11,8.2,14.7c8.6,6,21.1,8.9,37.5,8.9c25.2,0,57.2-8.9,96.2-26.6
				c-41.2-13.8-75-20.7-101.4-20.6C-918.1,886.6-928.9,889.6-936.8,895.5z"/>
		</g>
		<g>
			<path d="M-742.4,879.5c40.1-18.3,60.1-36,60.1-53.1c0-5.3-2.3-10.1-7-14.4c-4.7-4.3-10.6-6.5-17.9-6.5c-8.9,0-19.8,0.8-32.8,2.3
				c-36.1,3.8-59.9,5.8-71.2,5.8l-22.2,38.9c15.6,3.4,28.4,6.6,38.2,9.5C-785.3,865-767.7,870.8-742.4,879.5z"/>
		</g>
		<g>
			<path d="M-684.9,595.2l-54.2,91.9l43-2.8c12.9-0.5,28,1.3,45.1,5.5c17.1,4.1,31.9,10.6,44.2,19.3c12.3,8.7,22,19,29.1,30.8
				c6.8,11.5,10.3,24.1,10.5,37.8c0-0.5,0-1.1,0-1.6c0-82.7-45-154.9-111.9-193.4C-679.4,585.2-681.4,589.4-684.9,595.2z"/>
		</g>
		<g>
			<path d="M-827.5,693c11.1,0,36.1-1.7,75-5l26.3-46.3c-26-12.9-46.2-21.5-60.8-25.9s-27.4-6.6-38.4-6.6
				c-15.5,0-28.2,4.4-37.9,13.2c-9.8,8.8-14.6,19.1-14.6,30.8c0,11.6,4.2,21.1,12.6,28.6C-857,689.2-844.4,693-827.5,693z"/>
		</g>
		<g>
			<path d="M-622.7,854.3c11.8-15.6,17.7-32.7,17.7-51.5c0-12.3-3.7-24.3-11.1-36.2c-7.4-11.9-18.7-21.3-34-28.3
				c-15.3-7-32.9-10.6-52.9-10.6c-16.1,0-36.7,1.5-61.8,4.6l-19.8,34.7c39.5-3.9,67-5.9,82.4-5.9c21,0,37.1,4.8,48.2,14.3
				c11.1,9.5,16.7,21,16.7,34.2c0,11.6-5.4,22.9-16.3,33.9c-10.9,11-34.2,24.6-69.9,41l50.5,13.3
				C-651.3,884.4-634.5,869.9-622.7,854.3z"/>
		</g>
		<g>
			<path d="M-599.9,856.1c-21.9,25.3-61,51.9-117.1,79.9c-19.7-7.3-42.7-15-68.8-23c-46.6,21.3-85,32-115,32
				c-21.4,0-37.8-4.7-49.3-14c-0.4-0.3-0.8-0.7-1.2-1c40.6,42.6,97.9,69.1,161.4,69.1c120.2,0,218.2-95.1,222.8-214.2
				C-568.7,809-579.6,832.7-599.9,856.1z"/>
		</g>
		<g>
			<path d="M-967.4,898.5c0-13.1,7-25.1,20.9-35.9c13.9-10.8,34.5-16.3,61.9-16.3c10.8,0,24.1,1.3,40,4l20.2-35.6l-36.4,2.8
				c-8.6,0.2-20.2-1-34.8-3.6c-14.6-2.6-26.6-6.7-35.9-12.6c-9.4-5.8-16.4-12.9-21-21.4c-4.6-8.5-7-17.3-7-26.6
				c0-14.7,5.2-27.8,15.7-39.3c6.6-7.3,17.6-13.8,32.8-19.6l-0.2-3c0-15.4,6.8-33.1,20.5-53.1c13.7-20,38.7-44.6,75-73.9l112.1,37.5
				l8.3-14.6c3-5.3,5.1-8.6,6.4-9.8c0.1-0.1,0.1-0.1,0.2-0.2C-719,561.8-753.5,553-790,553c-123.2,0-223,99.8-223,223
				c0,54.2,19.4,103.9,51.5,142.6C-965.4,912.4-967.4,905.7-967.4,898.5z"/>
		</g>
	</g>
	<g>
		<path d="M-483.6,889.5l0.5-69l3.8,0.2c4.7,17.6,10.2,31.4,16.7,41.5c12.1,18.7,27.4,28,45.8,28c12.8,0,23.4-4.3,31.7-12.9
			c8.4-8.6,12.5-19.4,12.5-32.6c0-5.7-0.9-11.5-2.8-17.4c-1.8-5.9-4.3-11-7.4-15.2c-3.2-4.3-7.8-8.5-13.6-12.5
			c-5.9-4-14.8-9.1-26.8-15.2c-10.6-5.3-18.7-9.9-24.3-13.5c-5.6-3.7-10.2-7.4-13.6-11.2c-9.6-10.5-14.4-23.2-14.4-38.3
			c0-9.2,1.9-18.2,5.6-26.7c3.7-8.6,8.9-15.9,15.6-22.1c11.8-10.9,25.8-16.4,41.9-16.4c5.2,0,10.1,0.5,14.5,1.6
			c4.5,1.1,10.4,3.2,17.9,6.3c5.6,2.2,9.4,3.6,11.4,4.3s3.8,0.9,5.3,0.9c3.9,0,6.5-2.8,7.9-8.5h3.8l1.2,66.3h-3.8
			c-3-10.6-5.6-18.7-7.8-24.3c-2.2-5.6-4.8-10.8-7.8-15.6c-5.4-8.7-11.5-15.1-18-19.3c-6.6-4.2-14.1-6.3-22.7-6.3
			c-12.5,0-22.3,4.2-29.5,12.7c-3,3.5-5.4,7.5-7.1,12.2c-1.7,4.7-2.6,9.4-2.6,14c0,18.6,12,33.6,35.9,45l23.5,11.4
			c18.1,8.6,31.2,18.1,39.2,28.4c9.1,11.6,13.7,25.1,13.7,40.5c0,10.2-2.1,20-6.2,29.3c-5.8,13-14.5,23-26.1,30.1
			c-11.6,7.1-25.2,10.6-40.9,10.6c-14.4,0-28.2-2.8-41.4-8.5c-6.9-3-11-4.7-12.4-5.2c-1.3-0.4-2.8-0.7-4.5-0.7c-5.3,0-9,2.7-11,8
			H-483.6z"/>
		<path d="M-283.1,799.2c-0.4,5.5-0.7,9.4-0.7,11.9c0,9.7,1.4,19.2,4.2,28.4c2.8,9.2,6.7,16.9,11.6,23.1c5,6.2,11.2,11.1,18.6,14.7
			c7.4,3.6,15.1,5.3,23.2,5.3c6,0,11.7-1,17.1-3c5.4-2,9.9-4.8,13.4-8.4c4-3.9,7.4-10.1,10.3-18.7l3.5,1.2
			c-2.9,13-9.1,22.9-18.6,29.5c-9.5,6.6-22.2,9.9-38,9.9c-13.7,0-25.5-2.2-35.3-6.5c-9.8-4.3-18.1-11-24.9-20.1
			c-9.5-12.6-14.2-28.1-14.2-46.5c0-25.1,9-44.7,26.9-59c13-10.4,27.9-15.5,44.6-15.5c8.9,0,17.2,1.6,24.7,4.8
			c7.6,3.2,14,7.8,19.2,13.8c8.1,9.4,12.2,21.1,12.2,35.1H-283.1z M-210.2,792.7c-0.8-11.1-2.8-19.7-6.2-25.7c-3-5.5-7-9.8-12-13
			c-5-3.2-10.3-4.8-16-4.8c-9.5,0-17.9,4.1-25,12.4c-7.2,8.2-11.4,18.6-12.7,31.1H-210.2z"/>
		<path d="M-116.7,745.6c1.6,6.5,2.4,12.5,2.4,18.1v2.7c13.8-13.9,30.2-20.8,49.3-20.8c14.3,0,25.7,3.3,34.4,10
			c8.6,6.6,12.9,15.9,12.9,28v70.8c0,7.6,0.4,13.1,1.3,16.6c0.9,3.5,2.6,6.4,5.2,8.8c3.1,3,8.9,5.3,17.2,6.8v3.5h-73.9v-3.5
			c6.7-0.9,11.5-2.1,14.4-3.8c2.9-1.6,5.2-4.4,7-8.3c1.2-2.6,2.1-6.4,2.6-11.6c0.5-5.2,0.8-12.6,0.8-22.3v-35.4
			c0-12.1-0.4-21-1.2-26.7c-0.8-5.7-2.4-10.2-4.8-13.7c-2.6-3.9-6.2-6.9-11-9.1c-4.8-2.2-10.1-3.3-15.8-3.3c-6.2,0-12,1.2-17.4,3.7
			c-5.4,2.4-9.6,5.8-12.8,10c-3.3,4.5-5.5,9.5-6.6,15.1c-1.1,5.6-1.6,14.9-1.6,28v32.7l0.2,12.3c0,7.6,0.4,13.1,1.3,16.6
			c0.9,3.5,2.6,6.4,5.2,8.8c3.1,3,8.9,5.3,17.2,6.8v3.5h-73.9v-3.5c6.7-0.9,11.5-2.1,14.4-3.7c2.9-1.6,5.2-4.4,7-8.2
			c1.2-2.5,2.1-6.4,2.6-11.6c0.5-5.2,0.8-12.6,0.8-22.4v-41.1c0-11.4-0.3-19.4-0.8-24c-0.6-4.6-1.8-8.3-3.7-11.2
			c-1.9-3.1-4.2-5.3-6.9-6.7c-2.7-1.4-6.5-2.2-11.5-2.6v-3.5L-116.7,745.6z"/>
		<path d="M57.1,748.1h42.4v6.3H57.1v97.2c0,11.7,2,20.1,6,25.1c2.1,2.8,4.9,5,8.3,6.5c3.4,1.6,7.2,2.3,11.2,2.3c5,0,9.2-1,12.5-3.1
			c3.3-2.1,7-5.8,11-11.3l2.5,2.2c-3.7,6.7-8.8,11.6-15.5,14.9s-14.9,4.8-24.8,4.8c-13.1,0-22.7-2.6-28.7-7.7
			c-3.2-2.7-5.3-5.9-6.3-9.6s-1.5-10.4-1.5-20.1V754.4H13.8v-2.7c7.2-2.3,13.9-6.9,20.1-13.5c3.7-4.1,6.7-8.2,8.9-12.3
			c2.2-4.1,4.4-9.3,6.4-15.8l1.7-5.5h6.2V748.1z"/>
		<path d="M138,799.2c-0.4,5.5-0.7,9.4-0.7,11.9c0,9.7,1.4,19.2,4.2,28.4c2.8,9.2,6.7,16.9,11.6,23.1c5,6.2,11.2,11.1,18.6,14.7
			c7.4,3.6,15.1,5.3,23.2,5.3c6,0,11.7-1,17.1-3c5.4-2,9.9-4.8,13.4-8.4c4-3.9,7.4-10.1,10.3-18.7l3.5,1.2
			c-2.9,13-9.1,22.9-18.6,29.5c-9.5,6.6-22.2,9.9-38,9.9c-13.7,0-25.5-2.2-35.3-6.5c-9.8-4.3-18.1-11-24.9-20.1
			c-9.5-12.6-14.2-28.1-14.2-46.5c0-25.1,9-44.7,26.9-59c13-10.4,27.9-15.5,44.6-15.5c8.9,0,17.2,1.6,24.7,4.8
			c7.6,3.2,14,7.8,19.2,13.8c8.1,9.4,12.2,21.1,12.2,35.1H138z M210.8,792.7c-0.8-11.1-2.8-19.7-6.2-25.7c-3-5.5-7-9.8-12-13
			c-5-3.2-10.3-4.8-16-4.8c-9.5,0-17.9,4.1-25,12.4c-7.2,8.2-11.4,18.6-12.7,31.1H210.8z"/>
		<path d="M304.4,745.6c1.6,6.5,2.4,12.5,2.4,18.1v2.7c13.8-13.9,30.2-20.8,49.3-20.8c14.3,0,25.7,3.3,34.4,10
			c8.6,6.6,12.9,15.9,12.9,28v70.8c0,7.6,0.4,13.1,1.3,16.6c0.9,3.5,2.6,6.4,5.2,8.8c3.1,3,8.9,5.3,17.2,6.8v3.5h-73.9v-3.5
			c6.7-0.9,11.5-2.1,14.4-3.8c2.9-1.6,5.2-4.4,7-8.3c1.2-2.6,2.1-6.4,2.6-11.6c0.5-5.2,0.8-12.6,0.8-22.3v-35.4
			c0-12.1-0.4-21-1.2-26.7c-0.8-5.7-2.4-10.2-4.8-13.7c-2.6-3.9-6.2-6.9-11-9.1c-4.8-2.2-10.1-3.3-15.8-3.3c-6.2,0-12,1.2-17.4,3.7
			c-5.4,2.4-9.6,5.8-12.8,10c-3.3,4.5-5.5,9.5-6.6,15.1c-1.1,5.6-1.6,14.9-1.6,28v32.7l0.2,12.3c0,7.6,0.4,13.1,1.3,16.6
			c0.9,3.5,2.6,6.4,5.2,8.8c3.1,3,8.9,5.3,17.2,6.8v3.5h-73.9v-3.5c6.7-0.9,11.5-2.1,14.4-3.7c2.9-1.6,5.2-4.4,7-8.2
			c1.2-2.5,2.1-6.4,2.6-11.6c0.5-5.2,0.8-12.6,0.8-22.4v-41.1c0-11.4-0.3-19.4-0.8-24c-0.6-4.6-1.8-8.3-3.7-11.2
			c-1.9-3.1-4.2-5.3-6.9-6.7c-2.7-1.4-6.5-2.2-11.5-2.6v-3.5L304.4,745.6z"/>
		<path d="M559.9,858.5l3.3,1.2c-3.9,11.8-9.9,20.3-17.9,25.6c-8,5.2-19,7.9-33.1,7.9c-22.5,0-40.2-6.7-53-20.1
			c-12.5-13.1-18.7-29.7-18.7-49.8c0-9.8,1.7-19.5,5.2-29.1c3.5-9.6,8.2-17.8,14.2-24.6c6.8-7.8,15.1-13.8,25-17.9
			c9.9-4.1,20.6-6.2,32.3-6.2c16.1,0,28.8,3.6,37.9,10.9c5.6,4.5,8.4,9.4,8.4,14.7c0,3.6-1.2,6.5-3.5,8.9c-2.3,2.4-5.2,3.6-8.5,3.6
			c-7.2,0-12.6-5.3-16-15.9c-1.6-4.9-2.8-8.2-3.8-10c-0.9-1.8-2.3-3.3-4.1-4.7c-3.4-2.6-7.7-3.8-12.7-3.8c-6.6,0-12.6,1.8-18.2,5.5
			c-4.9,3.2-9,7.3-12.4,12.1c-3.4,4.8-6.4,10.9-8.9,18.3c-3.9,11.3-5.8,22.3-5.8,33.1c0,9.9,1.8,19.6,5.3,29.1
			c3.6,9.5,8.4,17.4,14.5,23.7c9.6,10,20.8,15,33.7,15c10.7,0,19.5-3.4,26.5-10.2C553.3,872.4,556.7,866.6,559.9,858.5z"/>
		<path d="M612.7,799.2c-0.4,5.5-0.7,9.4-0.7,11.9c0,9.7,1.4,19.2,4.2,28.4c2.8,9.2,6.7,16.9,11.6,23.1c5,6.2,11.2,11.1,18.6,14.7
			c7.4,3.6,15.1,5.3,23.2,5.3c6,0,11.7-1,17.1-3c5.4-2,9.9-4.8,13.4-8.4c4-3.9,7.4-10.1,10.3-18.7l3.5,1.2
			c-2.9,13-9.1,22.9-18.6,29.5c-9.5,6.6-22.2,9.9-38,9.9c-13.7,0-25.5-2.2-35.3-6.5c-9.8-4.3-18.1-11-24.9-20.1
			c-9.5-12.6-14.2-28.1-14.2-46.5c0-25.1,9-44.7,26.9-59c13-10.4,27.9-15.5,44.6-15.5c8.9,0,17.2,1.6,24.7,4.8
			c7.6,3.2,14,7.8,19.2,13.8c8.1,9.4,12.2,21.1,12.2,35.1H612.7z M685.5,792.7c-0.8-11.1-2.8-19.7-6.2-25.7c-3-5.5-7-9.8-12-13
			c-5-3.2-10.3-4.8-16-4.8c-9.5,0-17.9,4.1-25,12.4c-7.2,8.2-11.4,18.6-12.7,31.1H685.5z"/>
		<path d="M806.8,777.7v60c0,11.4,0.6,19.8,1.9,25.3c1.3,5.5,3.6,10.1,7.1,13.6c3,3.1,6.5,5.4,10.4,6.9c4,1.5,9.2,2.4,15.6,2.8v3.8
			H735.2v-3.8c6.5-0.3,11.7-1.3,15.6-2.8c4-1.5,7.4-3.8,10.4-6.9c3.6-3.6,6-8.1,7.2-13.5c1.2-5.5,1.8-13.9,1.8-25.4V714.5
			c0-9.6-0.4-17-1.3-22.1c-0.8-5.2-2.3-9.4-4.3-12.6c-2.9-4.5-6.6-7.8-11-9.9c-4.5-2.2-10.3-3.5-17.4-3.9h-1.2V662h100.8
			c17.6,0,30.6,0.9,38.9,2.7c8.4,1.8,16,5.3,22.9,10.7c15.8,12,23.7,28.1,23.7,48.1c0,20.4-8,35.3-24.1,44.8
			c-8.4,4.9-18.5,7.9-30.4,8.9c-3.8,0.3-12.9,0.5-27.4,0.5H806.8z M806.8,772.3h16.4c11,0,19.5-0.8,25.5-2.4c6-1.6,11.3-4.6,16-8.9
			c10.9-9.9,16.4-23.1,16.4-39.6c0-9.1-1.6-17.5-4.8-25.1c-3.2-7.6-7.7-13.8-13.6-18.6c-6.8-5.7-14.9-9-24.2-10
			c-2.6-0.2-8.4-0.3-17.5-0.3h-14V772.3z"/>
		<path d="M977.1,771.3c4-7,8.5-12.3,13.5-15.9c9.2-6.6,19.8-9.8,31.6-9.8c7.2,0,12.8,1.6,16.5,4.8c3.5,2.9,5.2,6.5,5.2,10.7
			c0,3.1-1,5.7-3.1,7.7c-2.1,2-4.7,3-7.9,3c-3.8,0-7.1-1.6-9.9-4.7l-5.2-5.7c-4.1-4.3-9-6.5-14.5-6.5c-7.6,0-13.5,4.9-17.7,14.7
			c-4.2,9.8-6.3,23.4-6.3,40.9v31.2l0.2,12.7c0,7.6,0.4,13.1,1.3,16.6c0.9,3.5,2.6,6.4,5.2,8.8c3.1,3,8.9,5.3,17.2,6.8v3.5h-73.9
			v-3.5c6.7-0.9,11.5-2.1,14.4-3.7c2.9-1.6,5.2-4.4,7-8.2c1.2-2.5,2.1-6.4,2.6-11.6c0.5-5.2,0.8-12.6,0.8-22.4v-41.1
			c0-11.4-0.3-19.4-0.8-24c-0.6-4.6-1.8-8.3-3.7-11.2c-1.9-3.1-4.2-5.3-6.9-6.7c-2.7-1.4-6.5-2.2-11.5-2.6v-3.5l43.1-6
			C976.1,755.6,977.1,764.2,977.1,771.3z"/>
		<path d="M1083.7,799.2c-0.4,5.5-0.7,9.4-0.7,11.9c0,9.7,1.4,19.2,4.2,28.4c2.8,9.2,6.7,16.9,11.6,23.1c5,6.2,11.2,11.1,18.6,14.7
			c7.4,3.6,15.1,5.3,23.2,5.3c6,0,11.7-1,17.1-3c5.4-2,9.9-4.8,13.4-8.4c4-3.9,7.4-10.1,10.3-18.7l3.5,1.2
			c-2.9,13-9.1,22.9-18.6,29.5c-9.5,6.6-22.2,9.9-38,9.9c-13.7,0-25.5-2.2-35.3-6.5c-9.8-4.3-18.1-11-24.9-20.1
			c-9.5-12.6-14.2-28.1-14.2-46.5c0-25.1,9-44.7,26.9-59c13-10.4,27.9-15.5,44.6-15.5c8.9,0,17.2,1.6,24.7,4.8
			c7.6,3.2,14,7.8,19.2,13.8c8.1,9.4,12.2,21.1,12.2,35.1H1083.7z M1156.6,792.7c-0.8-11.1-2.8-19.7-6.2-25.7c-3-5.5-7-9.8-12-13
			c-5-3.2-10.3-4.8-16-4.8c-9.5,0-17.9,4.1-25,12.4c-7.2,8.2-11.4,18.6-12.7,31.1H1156.6z"/>
		<path d="M1214,890.1v-47.3h2.7c3.1,11.6,7,20.8,11.7,27.7c8.6,12.6,18.6,18.9,30,18.9c7,0,13.1-2.1,18.2-6.3
			c5.6-4.7,8.3-11.3,8.3-19.9c0-7-2-13.1-6-18.4c-2.2-2.8-5-5.3-8.4-7.7c-3.4-2.3-9.1-5.6-17.1-9.9c-14-7.5-23.3-13.7-28-18.7
			c-6.7-7.1-10-15.4-10-24.7c0-10,3.3-18.7,10-25.9c7.7-8.2,17.9-12.4,30.6-12.4c5.7,0,11,1,15.9,3l5.7,2.5c1.8,0.7,3.3,1,4.7,1
			c2.1,0,4.1-1.7,6-5h3.3l1.8,37.9h-3.5c-1.2-5.3-2.5-9.6-3.9-12.9c-1.4-3.2-3.4-6.3-5.9-9.4c-3.4-4.2-7.4-7.5-12-9.9
			c-4.6-2.4-9.1-3.6-13.5-3.6c-6.2,0-11.5,2.3-15.9,6.8c-4.4,4.5-6.6,10.1-6.6,16.6c0,5.5,2,10.4,5.9,14.8c3.9,4.4,10,8.4,18.3,12.1
			l17.7,8c10.6,4.8,18.4,10.8,23.7,17.9c5.2,7.1,7.8,15.5,7.8,25.2c0,11.7-3.8,21.4-11.4,29.1c-8.7,8.9-19.8,13.4-33.4,13.4
			c-7.4,0-14.8-1.4-22.4-4.3c-4.9-1.9-7.9-3-8.9-3.3c-1-0.3-2.3-0.4-3.8-0.4c-3.9,0-6.9,1.7-8.9,5H1214z"/>
		<path d="M1335,890.1v-47.3h2.7c3.1,11.6,7,20.8,11.7,27.7c8.6,12.6,18.6,18.9,30,18.9c7,0,13.1-2.1,18.2-6.3
			c5.6-4.7,8.3-11.3,8.3-19.9c0-7-2-13.1-6-18.4c-2.2-2.8-5-5.3-8.4-7.7c-3.4-2.3-9.1-5.6-17.1-9.9c-14-7.5-23.3-13.7-28-18.7
			c-6.7-7.1-10-15.4-10-24.7c0-10,3.3-18.7,10-25.9c7.7-8.2,17.9-12.4,30.6-12.4c5.7,0,11,1,15.9,3l5.7,2.5c1.8,0.7,3.3,1,4.7,1
			c2.1,0,4.1-1.7,6-5h3.3l1.8,37.9h-3.5c-1.2-5.3-2.5-9.6-3.9-12.9c-1.4-3.2-3.4-6.3-5.9-9.4c-3.4-4.2-7.4-7.5-12-9.9
			c-4.6-2.4-9.1-3.6-13.5-3.6c-6.2,0-11.5,2.3-15.9,6.8c-4.4,4.5-6.6,10.1-6.6,16.6c0,5.5,2,10.4,5.9,14.8c3.9,4.4,10,8.4,18.3,12.1
			l17.7,8c10.6,4.8,18.4,10.8,23.7,17.9c5.2,7.1,7.8,15.5,7.8,25.2c0,11.7-3.8,21.4-11.4,29.1c-8.7,8.9-19.8,13.4-33.4,13.4
			c-7.4,0-14.8-1.4-22.4-4.3c-4.9-1.9-7.9-3-8.9-3.3c-1-0.3-2.3-0.4-3.8-0.4c-3.9,0-6.9,1.7-8.9,5H1335z"/>
	</g>
</g>
<g>
	<g>
		<g>
			<path class="st0" d="M-790,1080c32.4,0,63.8,6.3,93.4,18.9c28.6,12.1,54.2,29.4,76.3,51.4c22,22,39.4,47.7,51.4,76.3
				c12.5,29.6,18.9,61,18.9,93.4s-6.3,63.8-18.9,93.4c-12.1,28.6-29.4,54.2-51.4,76.3c-22,22-47.7,39.4-76.3,51.4
				c-29.6,12.5-61,18.9-93.4,18.9s-63.8-6.3-93.4-18.9c-28.6-12.1-54.2-29.4-76.3-51.4c-22-22-39.4-47.7-51.4-76.3
				c-12.5-29.6-18.9-61-18.9-93.4s6.3-63.8,18.9-93.4c12.1-28.6,29.4-54.2,51.4-76.3c22-22,47.7-39.4,76.3-51.4
				C-853.8,1086.3-822.4,1080-790,1080 M-790,1070c-138.1,0-250,111.9-250,250s111.9,250,250,250s250-111.9,250-250
				S-651.9,1070-790,1070L-790,1070z"/>
		</g>
	</g>
	<g>
		<g>
			<path class="st0" d="M-910,1249.2c-11.9,7.6-17.9,17.1-17.9,28.3c0,10.3,4.6,18.7,13.9,25.4c12.3,8.6,33.2,12.9,62.9,12.9
				c13.9,0,31.7-1.3,53.2-3.8l19.7-34.6c-21.6,3.1-42.5,4.6-62.7,4.6c-22.5,0-38.5-2.6-48-8C-898.3,1268.7-905.4,1260.4-910,1249.2z
				"/>
		</g>
		<g>
			<path class="st0" d="M-936.8,1439.5c-5.5,4-8.2,8.9-8.2,14.7c0,6.1,2.7,11,8.2,14.7c8.6,6,21.1,8.9,37.5,8.9
				c25.2,0,57.2-8.9,96.2-26.6c-41.2-13.8-75-20.7-101.4-20.6C-918.1,1430.6-928.9,1433.6-936.8,1439.5z"/>
		</g>
		<g>
			<path class="st0" d="M-742.4,1423.5c40.1-18.3,60.1-36,60.1-53.1c0-5.3-2.3-10.1-7-14.4c-4.7-4.3-10.6-6.5-17.9-6.5
				c-8.9,0-19.8,0.8-32.8,2.3c-36.1,3.8-59.9,5.8-71.2,5.8l-22.2,38.9c15.6,3.4,28.4,6.6,38.2,9.5
				C-785.3,1409-767.7,1414.8-742.4,1423.5z"/>
		</g>
		<g>
			<path class="st0" d="M-684.9,1139.2l-54.2,91.9l43-2.8c12.9-0.5,28,1.3,45.1,5.5c17.1,4.1,31.9,10.6,44.2,19.3
				c12.3,8.7,22,19,29.1,30.8c6.8,11.5,10.3,24.1,10.5,37.8c0-0.5,0-1.1,0-1.6c0-82.7-45-154.9-111.9-193.4
				C-679.4,1129.2-681.4,1133.4-684.9,1139.2z"/>
		</g>
		<g>
			<path class="st0" d="M-827.5,1237c11.1,0,36.1-1.7,75-5l26.3-46.3c-26-12.9-46.2-21.5-60.8-25.9s-27.4-6.6-38.4-6.6
				c-15.5,0-28.2,4.4-37.9,13.2c-9.8,8.8-14.6,19.1-14.6,30.8c0,11.6,4.2,21.1,12.6,28.6C-857,1233.2-844.4,1237-827.5,1237z"/>
		</g>
		<g>
			<path class="st0" d="M-622.7,1398.3c11.8-15.6,17.7-32.7,17.7-51.5c0-12.3-3.7-24.3-11.1-36.2c-7.4-11.9-18.7-21.3-34-28.3
				c-15.3-7-32.9-10.6-52.9-10.6c-16.1,0-36.7,1.5-61.8,4.6l-19.8,34.7c39.5-3.9,67-5.9,82.4-5.9c21,0,37.1,4.8,48.2,14.3
				c11.1,9.5,16.7,21,16.7,34.2c0,11.6-5.4,22.9-16.3,33.9c-10.9,11-34.2,24.6-69.9,41l50.5,13.3
				C-651.3,1428.4-634.5,1413.9-622.7,1398.3z"/>
		</g>
		<g>
			<path class="st0" d="M-599.9,1400.1c-21.9,25.3-61,51.9-117.1,79.9c-19.7-7.3-42.7-15-68.8-23c-46.6,21.3-85,32-115,32
				c-21.4,0-37.8-4.7-49.3-14c-0.4-0.3-0.8-0.7-1.2-1c40.6,42.6,97.9,69.1,161.4,69.1c120.2,0,218.2-95.1,222.8-214.2
				C-568.7,1353-579.6,1376.7-599.9,1400.1z"/>
		</g>
		<g>
			<path class="st0" d="M-967.4,1442.5c0-13.1,7-25.1,20.9-35.9c13.9-10.8,34.5-16.3,61.9-16.3c10.8,0,24.1,1.3,40,4l20.2-35.6
				l-36.4,2.8c-8.6,0.2-20.2-1-34.8-3.6c-14.6-2.6-26.6-6.7-35.9-12.6c-9.4-5.8-16.4-12.9-21-21.4c-4.6-8.5-7-17.3-7-26.6
				c0-14.7,5.2-27.8,15.7-39.3c6.6-7.3,17.6-13.8,32.8-19.6l-0.2-3c0-15.4,6.8-33.1,20.5-53.1c13.7-20,38.7-44.6,75-73.9l112.1,37.5
				l8.3-14.6c3-5.3,5.1-8.6,6.4-9.8c0.1-0.1,0.1-0.1,0.2-0.2c-30.4-15.5-64.9-24.3-101.4-24.3c-123.2,0-223,99.8-223,223
				c0,54.2,19.4,103.9,51.5,142.6C-965.4,1456.4-967.4,1449.7-967.4,1442.5z"/>
		</g>
	</g>
	<g>
		<g>
			<path class="st0" d="M-483.6,1433.5l0.5-69l3.8,0.2c4.7,17.6,10.2,31.4,16.7,41.5c12.1,18.7,27.4,28,45.8,28
				c12.8,0,23.4-4.3,31.7-12.9c8.4-8.6,12.5-19.4,12.5-32.6c0-5.7-0.9-11.5-2.8-17.4c-1.8-5.9-4.3-11-7.4-15.2
				c-3.2-4.3-7.8-8.5-13.6-12.5c-5.9-4-14.8-9.1-26.8-15.2c-10.6-5.3-18.7-9.9-24.3-13.5c-5.6-3.7-10.2-7.4-13.6-11.2
				c-9.6-10.5-14.4-23.2-14.4-38.3c0-9.2,1.9-18.2,5.6-26.7c3.7-8.6,8.9-15.9,15.6-22.1c11.8-10.9,25.8-16.4,41.9-16.4
				c5.2,0,10.1,0.5,14.5,1.6c4.5,1.1,10.4,3.2,17.9,6.3c5.6,2.2,9.4,3.6,11.4,4.3s3.8,0.9,5.3,0.9c3.9,0,6.5-2.8,7.9-8.5h3.8
				l1.2,66.3h-3.8c-3-10.6-5.6-18.7-7.8-24.3c-2.2-5.6-4.8-10.8-7.8-15.6c-5.4-8.7-11.5-15.1-18-19.3c-6.6-4.2-14.1-6.3-22.7-6.3
				c-12.5,0-22.3,4.2-29.5,12.7c-3,3.5-5.4,7.5-7.1,12.2c-1.7,4.7-2.6,9.4-2.6,14c0,18.6,12,33.6,35.9,45l23.5,11.4
				c18.1,8.6,31.2,18.1,39.2,28.4c9.1,11.6,13.7,25.1,13.7,40.5c0,10.2-2.1,20-6.2,29.3c-5.8,13-14.5,23-26.1,30.1
				c-11.6,7.1-25.2,10.6-40.9,10.6c-14.4,0-28.2-2.8-41.4-8.5c-6.9-3-11-4.7-12.4-5.2c-1.3-0.4-2.8-0.7-4.5-0.7c-5.3,0-9,2.7-11,8
				H-483.6z"/>
		</g>
		<g>
			<path class="st0" d="M-283.1,1343.2c-0.4,5.5-0.7,9.4-0.7,11.9c0,9.7,1.4,19.2,4.2,28.4c2.8,9.2,6.7,16.9,11.6,23.1
				c5,6.2,11.2,11.1,18.6,14.7c7.4,3.6,15.1,5.3,23.2,5.3c6,0,11.7-1,17.1-3c5.4-2,9.9-4.8,13.4-8.4c4-3.9,7.4-10.1,10.3-18.7
				l3.5,1.2c-2.9,13-9.1,22.9-18.6,29.5c-9.5,6.6-22.2,9.9-38,9.9c-13.7,0-25.5-2.2-35.3-6.5c-9.8-4.3-18.1-11-24.9-20.1
				c-9.5-12.6-14.2-28.1-14.2-46.5c0-25.1,9-44.7,26.9-59c13-10.4,27.9-15.5,44.6-15.5c8.9,0,17.2,1.6,24.7,4.8
				c7.6,3.2,14,7.8,19.2,13.8c8.1,9.4,12.2,21.1,12.2,35.1H-283.1z M-210.2,1336.7c-0.8-11.1-2.8-19.7-6.2-25.7c-3-5.5-7-9.8-12-13
				c-5-3.2-10.3-4.8-16-4.8c-9.5,0-17.9,4.1-25,12.4c-7.2,8.2-11.4,18.6-12.7,31.1H-210.2z"/>
		</g>
		<g>
			<path class="st0" d="M-116.7,1289.6c1.6,6.5,2.4,12.5,2.4,18.1v2.7c13.8-13.9,30.2-20.8,49.3-20.8c14.3,0,25.7,3.3,34.4,10
				c8.6,6.6,12.9,15.9,12.9,28v70.8c0,7.6,0.4,13.1,1.3,16.6c0.9,3.5,2.6,6.4,5.2,8.8c3.1,3,8.9,5.3,17.2,6.8v3.5h-73.9v-3.5
				c6.7-0.9,11.5-2.1,14.4-3.8c2.9-1.6,5.2-4.4,7-8.3c1.2-2.6,2.1-6.4,2.6-11.6c0.5-5.2,0.8-12.6,0.8-22.3v-35.4
				c0-12.1-0.4-21-1.2-26.7c-0.8-5.7-2.4-10.2-4.8-13.7c-2.6-3.9-6.2-6.9-11-9.1c-4.8-2.2-10.1-3.3-15.8-3.3c-6.2,0-12,1.2-17.4,3.7
				c-5.4,2.4-9.6,5.8-12.8,10c-3.3,4.5-5.5,9.5-6.6,15.1c-1.1,5.6-1.6,14.9-1.6,28v32.7l0.2,12.3c0,7.6,0.4,13.1,1.3,16.6
				c0.9,3.5,2.6,6.4,5.2,8.8c3.1,3,8.9,5.3,17.2,6.8v3.5h-73.9v-3.5c6.7-0.9,11.5-2.1,14.4-3.7c2.9-1.6,5.2-4.4,7-8.2
				c1.2-2.5,2.1-6.4,2.6-11.6c0.5-5.2,0.8-12.6,0.8-22.4v-41.1c0-11.4-0.3-19.4-0.8-24c-0.6-4.6-1.8-8.3-3.7-11.2
				c-1.9-3.1-4.2-5.3-6.9-6.7c-2.7-1.4-6.5-2.2-11.5-2.6v-3.5L-116.7,1289.6z"/>
		</g>
		<g>
			<path class="st0" d="M57.1,1292.1h42.4v6.3H57.1v97.2c0,11.7,2,20.1,6,25.1c2.1,2.8,4.9,5,8.3,6.5c3.4,1.6,7.2,2.3,11.2,2.3
				c5,0,9.2-1,12.5-3.1s7-5.8,11-11.3l2.5,2.2c-3.7,6.7-8.8,11.6-15.5,14.9c-6.6,3.2-14.9,4.8-24.8,4.8c-13.1,0-22.7-2.6-28.7-7.7
				c-3.2-2.7-5.3-5.9-6.3-9.6s-1.5-10.4-1.5-20.1v-101.3H13.8v-2.7c7.2-2.3,13.9-6.9,20.1-13.5c3.7-4.1,6.7-8.2,8.9-12.3
				c2.2-4.1,4.4-9.3,6.4-15.8l1.7-5.5h6.2V1292.1z"/>
		</g>
		<g>
			<path class="st0" d="M138,1343.2c-0.4,5.5-0.7,9.4-0.7,11.9c0,9.7,1.4,19.2,4.2,28.4c2.8,9.2,6.7,16.9,11.6,23.1
				c5,6.2,11.2,11.1,18.6,14.7c7.4,3.6,15.1,5.3,23.2,5.3c6,0,11.7-1,17.1-3c5.4-2,9.9-4.8,13.4-8.4c4-3.9,7.4-10.1,10.3-18.7
				l3.5,1.2c-2.9,13-9.1,22.9-18.6,29.5c-9.5,6.6-22.2,9.9-38,9.9c-13.7,0-25.5-2.2-35.3-6.5c-9.8-4.3-18.1-11-24.9-20.1
				c-9.5-12.6-14.2-28.1-14.2-46.5c0-25.1,9-44.7,26.9-59c13-10.4,27.9-15.5,44.6-15.5c8.9,0,17.2,1.6,24.7,4.8
				c7.6,3.2,14,7.8,19.2,13.8c8.1,9.4,12.2,21.1,12.2,35.1H138z M210.8,1336.7c-0.8-11.1-2.8-19.7-6.2-25.7c-3-5.5-7-9.8-12-13
				c-5-3.2-10.3-4.8-16-4.8c-9.5,0-17.9,4.1-25,12.4c-7.2,8.2-11.4,18.6-12.7,31.1H210.8z"/>
		</g>
		<g>
			<path class="st0" d="M304.4,1289.6c1.6,6.5,2.4,12.5,2.4,18.1v2.7c13.8-13.9,30.2-20.8,49.3-20.8c14.3,0,25.7,3.3,34.4,10
				c8.6,6.6,12.9,15.9,12.9,28v70.8c0,7.6,0.4,13.1,1.3,16.6c0.9,3.5,2.6,6.4,5.2,8.8c3.1,3,8.9,5.3,17.2,6.8v3.5h-73.9v-3.5
				c6.7-0.9,11.5-2.1,14.4-3.8c2.9-1.6,5.2-4.4,7-8.3c1.2-2.6,2.1-6.4,2.6-11.6c0.5-5.2,0.8-12.6,0.8-22.3v-35.4
				c0-12.1-0.4-21-1.2-26.7c-0.8-5.7-2.4-10.2-4.8-13.7c-2.6-3.9-6.2-6.9-11-9.1c-4.8-2.2-10.1-3.3-15.8-3.3c-6.2,0-12,1.2-17.4,3.7
				c-5.4,2.4-9.6,5.8-12.8,10c-3.3,4.5-5.5,9.5-6.6,15.1c-1.1,5.6-1.6,14.9-1.6,28v32.7l0.2,12.3c0,7.6,0.4,13.1,1.3,16.6
				c0.9,3.5,2.6,6.4,5.2,8.8c3.1,3,8.9,5.3,17.2,6.8v3.5h-73.9v-3.5c6.7-0.9,11.5-2.1,14.4-3.7c2.9-1.6,5.2-4.4,7-8.2
				c1.2-2.5,2.1-6.4,2.6-11.6c0.5-5.2,0.8-12.6,0.8-22.4v-41.1c0-11.4-0.3-19.4-0.8-24c-0.6-4.6-1.8-8.3-3.7-11.2
				c-1.9-3.1-4.2-5.3-6.9-6.7c-2.7-1.4-6.5-2.2-11.5-2.6v-3.5L304.4,1289.6z"/>
		</g>
		<g>
			<path class="st0" d="M559.9,1402.5l3.3,1.2c-3.9,11.8-9.9,20.3-17.9,25.6c-8,5.2-19,7.9-33.1,7.9c-22.5,0-40.2-6.7-53-20.1
				c-12.5-13.1-18.7-29.7-18.7-49.8c0-9.8,1.7-19.5,5.2-29.1c3.5-9.6,8.2-17.8,14.2-24.6c6.8-7.8,15.1-13.8,25-17.9
				c9.9-4.1,20.6-6.2,32.3-6.2c16.1,0,28.8,3.6,37.9,10.9c5.6,4.5,8.4,9.4,8.4,14.7c0,3.6-1.2,6.5-3.5,8.9c-2.3,2.4-5.2,3.6-8.5,3.6
				c-7.2,0-12.6-5.3-16-15.9c-1.6-4.9-2.8-8.2-3.8-10c-0.9-1.8-2.3-3.3-4.1-4.7c-3.4-2.6-7.7-3.8-12.7-3.8c-6.6,0-12.6,1.8-18.2,5.5
				c-4.9,3.2-9,7.3-12.4,12.1c-3.4,4.8-6.4,10.9-8.9,18.3c-3.9,11.3-5.8,22.3-5.8,33.1c0,9.9,1.8,19.6,5.3,29.1
				c3.6,9.5,8.4,17.4,14.5,23.7c9.6,10,20.8,15,33.7,15c10.7,0,19.5-3.4,26.5-10.2C553.3,1416.4,556.7,1410.6,559.9,1402.5z"/>
		</g>
		<g>
			<path class="st0" d="M612.7,1343.2c-0.4,5.5-0.7,9.4-0.7,11.9c0,9.7,1.4,19.2,4.2,28.4c2.8,9.2,6.7,16.9,11.6,23.1
				c5,6.2,11.2,11.1,18.6,14.7c7.4,3.6,15.1,5.3,23.2,5.3c6,0,11.7-1,17.1-3c5.4-2,9.9-4.8,13.4-8.4c4-3.9,7.4-10.1,10.3-18.7
				l3.5,1.2c-2.9,13-9.1,22.9-18.6,29.5c-9.5,6.6-22.2,9.9-38,9.9c-13.7,0-25.5-2.2-35.3-6.5c-9.8-4.3-18.1-11-24.9-20.1
				c-9.5-12.6-14.2-28.1-14.2-46.5c0-25.1,9-44.7,26.9-59c13-10.4,27.9-15.5,44.6-15.5c8.9,0,17.2,1.6,24.7,4.8
				c7.6,3.2,14,7.8,19.2,13.8c8.1,9.4,12.2,21.1,12.2,35.1H612.7z M685.5,1336.7c-0.8-11.1-2.8-19.7-6.2-25.7c-3-5.5-7-9.8-12-13
				c-5-3.2-10.3-4.8-16-4.8c-9.5,0-17.9,4.1-25,12.4c-7.2,8.2-11.4,18.6-12.7,31.1H685.5z"/>
		</g>
		<g>
			<path class="st0" d="M806.8,1321.7v60c0,11.4,0.6,19.8,1.9,25.3c1.3,5.5,3.6,10.1,7.1,13.6c3,3.1,6.5,5.4,10.4,6.9
				c4,1.5,9.2,2.4,15.6,2.8v3.8H735.2v-3.8c6.5-0.3,11.7-1.3,15.6-2.8c4-1.5,7.4-3.8,10.4-6.9c3.6-3.6,6-8.1,7.2-13.5
				c1.2-5.5,1.8-13.9,1.8-25.4v-123.1c0-9.6-0.4-17-1.3-22.1c-0.8-5.2-2.3-9.4-4.3-12.6c-2.9-4.5-6.6-7.8-11-9.9
				c-4.5-2.2-10.3-3.5-17.4-3.9h-1.2v-3.8h100.8c17.6,0,30.6,0.9,38.9,2.7c8.4,1.8,16,5.3,22.9,10.7c15.8,12,23.7,28.1,23.7,48.1
				c0,20.4-8,35.3-24.1,44.8c-8.4,4.9-18.5,7.9-30.4,8.9c-3.8,0.3-12.9,0.5-27.4,0.5H806.8z M806.8,1316.3h16.4
				c11,0,19.5-0.8,25.5-2.4c6-1.6,11.3-4.6,16-8.9c10.9-9.9,16.4-23.1,16.4-39.6c0-9.1-1.6-17.5-4.8-25.1
				c-3.2-7.6-7.7-13.8-13.6-18.6c-6.8-5.7-14.9-9-24.2-10c-2.6-0.2-8.4-0.3-17.5-0.3h-14V1316.3z"/>
		</g>
		<g>
			<path class="st0" d="M977.1,1315.3c4-7,8.5-12.3,13.5-15.9c9.2-6.6,19.8-9.8,31.6-9.8c7.2,0,12.8,1.6,16.5,4.8
				c3.5,2.9,5.2,6.5,5.2,10.7c0,3.1-1,5.7-3.1,7.7c-2.1,2-4.7,3-7.9,3c-3.8,0-7.1-1.6-9.9-4.7l-5.2-5.7c-4.1-4.3-9-6.5-14.5-6.5
				c-7.6,0-13.5,4.9-17.7,14.7c-4.2,9.8-6.3,23.4-6.3,40.9v31.2l0.2,12.7c0,7.6,0.4,13.1,1.3,16.6c0.9,3.5,2.6,6.4,5.2,8.8
				c3.1,3,8.9,5.3,17.2,6.8v3.5h-73.9v-3.5c6.7-0.9,11.5-2.1,14.4-3.7c2.9-1.6,5.2-4.4,7-8.2c1.2-2.5,2.1-6.4,2.6-11.6
				c0.5-5.2,0.8-12.6,0.8-22.4v-41.1c0-11.4-0.3-19.4-0.8-24c-0.6-4.6-1.8-8.3-3.7-11.2c-1.9-3.1-4.2-5.3-6.9-6.7
				c-2.7-1.4-6.5-2.2-11.5-2.6v-3.5l43.1-6C976.1,1299.6,977.1,1308.2,977.1,1315.3z"/>
		</g>
		<g>
			<path class="st0" d="M1083.7,1343.2c-0.4,5.5-0.7,9.4-0.7,11.9c0,9.7,1.4,19.2,4.2,28.4c2.8,9.2,6.7,16.9,11.6,23.1
				c5,6.2,11.2,11.1,18.6,14.7c7.4,3.6,15.1,5.3,23.2,5.3c6,0,11.7-1,17.1-3c5.4-2,9.9-4.8,13.4-8.4c4-3.9,7.4-10.1,10.3-18.7
				l3.5,1.2c-2.9,13-9.1,22.9-18.6,29.5c-9.5,6.6-22.2,9.9-38,9.9c-13.7,0-25.5-2.2-35.3-6.5c-9.8-4.3-18.1-11-24.9-20.1
				c-9.5-12.6-14.2-28.1-14.2-46.5c0-25.1,9-44.7,26.9-59c13-10.4,27.9-15.5,44.6-15.5c8.9,0,17.2,1.6,24.7,4.8
				c7.6,3.2,14,7.8,19.2,13.8c8.1,9.4,12.2,21.1,12.2,35.1H1083.7z M1156.6,1336.7c-0.8-11.1-2.8-19.7-6.2-25.7c-3-5.5-7-9.8-12-13
				c-5-3.2-10.3-4.8-16-4.8c-9.5,0-17.9,4.1-25,12.4c-7.2,8.2-11.4,18.6-12.7,31.1H1156.6z"/>
		</g>
		<g>
			<path class="st0" d="M1214,1434.1v-47.3h2.7c3.1,11.6,7,20.8,11.7,27.7c8.6,12.6,18.6,18.9,30,18.9c7,0,13.1-2.1,18.2-6.3
				c5.6-4.7,8.3-11.3,8.3-19.9c0-7-2-13.1-6-18.4c-2.2-2.8-5-5.3-8.4-7.7s-9.1-5.6-17.1-9.9c-14-7.5-23.3-13.7-28-18.7
				c-6.7-7.1-10-15.4-10-24.7c0-10,3.3-18.7,10-25.9c7.7-8.2,17.9-12.4,30.6-12.4c5.7,0,11,1,15.9,3l5.7,2.5c1.8,0.7,3.3,1,4.7,1
				c2.1,0,4.1-1.7,6-5h3.3l1.8,37.9h-3.5c-1.2-5.3-2.5-9.6-3.9-12.9c-1.4-3.2-3.4-6.3-5.9-9.4c-3.4-4.2-7.4-7.5-12-9.9
				c-4.6-2.4-9.1-3.6-13.5-3.6c-6.2,0-11.5,2.3-15.9,6.8c-4.4,4.5-6.6,10.1-6.6,16.6c0,5.5,2,10.4,5.9,14.8
				c3.9,4.4,10,8.4,18.3,12.1l17.7,8c10.6,4.8,18.4,10.8,23.7,17.9c5.2,7.1,7.8,15.5,7.8,25.2c0,11.7-3.8,21.4-11.4,29.1
				c-8.7,8.9-19.8,13.4-33.4,13.4c-7.4,0-14.8-1.4-22.4-4.3c-4.9-1.9-7.9-3-8.9-3.3c-1-0.3-2.3-0.4-3.8-0.4c-3.9,0-6.9,1.7-8.9,5
				H1214z"/>
		</g>
		<g>
			<path class="st0" d="M1335,1434.1v-47.3h2.7c3.1,11.6,7,20.8,11.7,27.7c8.6,12.6,18.6,18.9,30,18.9c7,0,13.1-2.1,18.2-6.3
				c5.6-4.7,8.3-11.3,8.3-19.9c0-7-2-13.1-6-18.4c-2.2-2.8-5-5.3-8.4-7.7c-3.4-2.3-9.1-5.6-17.1-9.9c-14-7.5-23.3-13.7-28-18.7
				c-6.7-7.1-10-15.4-10-24.7c0-10,3.3-18.7,10-25.9c7.7-8.2,17.9-12.4,30.6-12.4c5.7,0,11,1,15.9,3l5.7,2.5c1.8,0.7,3.3,1,4.7,1
				c2.1,0,4.1-1.7,6-5h3.3l1.8,37.9h-3.5c-1.2-5.3-2.5-9.6-3.9-12.9c-1.4-3.2-3.4-6.3-5.9-9.4c-3.4-4.2-7.4-7.5-12-9.9
				c-4.6-2.4-9.1-3.6-13.5-3.6c-6.2,0-11.5,2.3-15.9,6.8c-4.4,4.5-6.6,10.1-6.6,16.6c0,5.5,2,10.4,5.9,14.8
				c3.9,4.4,10,8.4,18.3,12.1l17.7,8c10.6,4.8,18.4,10.8,23.7,17.9c5.2,7.1,7.8,15.5,7.8,25.2c0,11.7-3.8,21.4-11.4,29.1
				c-8.7,8.9-19.8,13.4-33.4,13.4c-7.4,0-14.8-1.4-22.4-4.3c-4.9-1.9-7.9-3-8.9-3.3c-1-0.3-2.3-0.4-3.8-0.4c-3.9,0-6.9,1.7-8.9,5
				H1335z"/>
		</g>
	</g>
</g>
<g>
	<g>
		<path class="st1" d="M-790,1629c32.4,0,63.8,6.3,93.4,18.9c28.6,12.1,54.2,29.4,76.3,51.4c22,22,39.4,47.7,51.4,76.3
			c12.5,29.6,18.9,61,18.9,93.4s-6.3,63.8-18.9,93.4c-12.1,28.6-29.4,54.2-51.4,76.3c-22,22-47.7,39.4-76.3,51.4
			c-29.6,12.5-61,18.9-93.4,18.9s-63.8-6.3-93.4-18.9c-28.6-12.1-54.2-29.4-76.3-51.4c-22-22-39.4-47.7-51.4-76.3
			c-12.5-29.6-18.9-61-18.9-93.4s6.3-63.8,18.9-93.4c12.1-28.6,29.4-54.2,51.4-76.3c22-22,47.7-39.4,76.3-51.4
			C-853.8,1635.3-822.4,1629-790,1629 M-790,1619c-138.1,0-250,111.9-250,250s111.9,250,250,250s250-111.9,250-250
			S-651.9,1619-790,1619L-790,1619z"/>
	</g>
	<g>
		<g>
			<path class="st1" d="M-910,1798.2c-11.9,7.6-17.9,17.1-17.9,28.3c0,10.3,4.6,18.7,13.9,25.4c12.3,8.6,33.2,12.9,62.9,12.9
				c13.9,0,31.7-1.3,53.2-3.8l19.7-34.6c-21.6,3.1-42.5,4.6-62.7,4.6c-22.5,0-38.5-2.6-48-8C-898.3,1817.7-905.4,1809.4-910,1798.2z
				"/>
		</g>
		<g>
			<path class="st1" d="M-936.8,1988.5c-5.5,4-8.2,8.9-8.2,14.7c0,6.1,2.7,11,8.2,14.7c8.6,6,21.1,8.9,37.5,8.9
				c25.2,0,57.2-8.9,96.2-26.6c-41.2-13.8-75-20.7-101.4-20.6C-918.1,1979.6-928.9,1982.6-936.8,1988.5z"/>
		</g>
		<g>
			<path class="st1" d="M-742.4,1972.5c40.1-18.3,60.1-36,60.1-53.1c0-5.3-2.3-10.1-7-14.4c-4.7-4.3-10.6-6.5-17.9-6.5
				c-8.9,0-19.8,0.8-32.8,2.3c-36.1,3.8-59.9,5.8-71.2,5.8l-22.2,38.9c15.6,3.4,28.4,6.6,38.2,9.5
				C-785.3,1958-767.7,1963.8-742.4,1972.5z"/>
		</g>
		<g>
			<path class="st1" d="M-684.9,1688.2l-54.2,91.9l43-2.8c12.9-0.5,28,1.3,45.1,5.5c17.1,4.1,31.9,10.6,44.2,19.3
				c12.3,8.7,22,19,29.1,30.8c6.8,11.5,10.3,24.1,10.5,37.8c0-0.5,0-1.1,0-1.6c0-82.7-45-154.9-111.9-193.4
				C-679.4,1678.2-681.4,1682.4-684.9,1688.2z"/>
		</g>
		<g>
			<path class="st1" d="M-827.5,1786c11.1,0,36.1-1.7,75-5l26.3-46.3c-26-12.9-46.2-21.5-60.8-25.9s-27.4-6.6-38.4-6.6
				c-15.5,0-28.2,4.4-37.9,13.2c-9.8,8.8-14.6,19.1-14.6,30.8c0,11.6,4.2,21.1,12.6,28.6C-857,1782.2-844.4,1786-827.5,1786z"/>
		</g>
		<g>
			<path class="st1" d="M-622.7,1947.3c11.8-15.6,17.7-32.7,17.7-51.5c0-12.3-3.7-24.3-11.1-36.2c-7.4-11.9-18.7-21.3-34-28.3
				c-15.3-7-32.9-10.6-52.9-10.6c-16.1,0-36.7,1.5-61.8,4.6l-19.8,34.7c39.5-3.9,67-5.9,82.4-5.9c21,0,37.1,4.8,48.2,14.3
				c11.1,9.5,16.7,21,16.7,34.2c0,11.6-5.4,22.9-16.3,33.9c-10.9,11-34.2,24.6-69.9,41l50.5,13.3
				C-651.3,1977.4-634.5,1962.9-622.7,1947.3z"/>
		</g>
		<g>
			<path class="st1" d="M-599.9,1949.1c-21.9,25.3-61,51.9-117.1,79.9c-19.7-7.3-42.7-15-68.8-23c-46.6,21.3-85,32-115,32
				c-21.4,0-37.8-4.7-49.3-14c-0.4-0.3-0.8-0.7-1.2-1c40.6,42.6,97.9,69.1,161.4,69.1c120.2,0,218.2-95.1,222.8-214.2
				C-568.7,1902-579.6,1925.7-599.9,1949.1z"/>
		</g>
		<g>
			<path class="st1" d="M-967.4,1991.5c0-13.1,7-25.1,20.9-35.9c13.9-10.8,34.5-16.3,61.9-16.3c10.8,0,24.1,1.3,40,4l20.2-35.6
				l-36.4,2.8c-8.6,0.2-20.2-1-34.8-3.6c-14.6-2.6-26.6-6.7-35.9-12.6c-9.4-5.8-16.4-12.9-21-21.4c-4.6-8.5-7-17.3-7-26.6
				c0-14.7,5.2-27.8,15.7-39.3c6.6-7.3,17.6-13.8,32.8-19.6l-0.2-3c0-15.4,6.8-33.1,20.5-53.1c13.7-20,38.7-44.6,75-73.9l112.1,37.5
				l8.3-14.6c3-5.3,5.1-8.6,6.4-9.8c0.1-0.1,0.1-0.1,0.2-0.2c-30.4-15.5-64.9-24.3-101.4-24.3c-123.2,0-223,99.8-223,223
				c0,54.2,19.4,103.9,51.5,142.6C-965.4,2005.4-967.4,1998.7-967.4,1991.5z"/>
		</g>
	</g>
	<g>
		<path class="st1" d="M-483.6,1982.5l0.5-69l3.8,0.2c4.7,17.6,10.2,31.4,16.7,41.5c12.1,18.7,27.4,28,45.8,28
			c12.8,0,23.4-4.3,31.7-12.9c8.4-8.6,12.5-19.4,12.5-32.6c0-5.7-0.9-11.5-2.8-17.4c-1.8-5.9-4.3-11-7.4-15.2
			c-3.2-4.3-7.8-8.5-13.6-12.5c-5.9-4-14.8-9.1-26.8-15.2c-10.6-5.3-18.7-9.9-24.3-13.5c-5.6-3.7-10.2-7.4-13.6-11.2
			c-9.6-10.5-14.4-23.2-14.4-38.3c0-9.2,1.9-18.2,5.6-26.7c3.7-8.6,8.9-15.9,15.6-22.1c11.8-10.9,25.8-16.4,41.9-16.4
			c5.2,0,10.1,0.5,14.5,1.6c4.5,1.1,10.4,3.2,17.9,6.3c5.6,2.2,9.4,3.6,11.4,4.3s3.8,0.9,5.3,0.9c3.9,0,6.5-2.8,7.9-8.5h3.8
			l1.2,66.3h-3.8c-3-10.6-5.6-18.7-7.8-24.3c-2.2-5.6-4.8-10.8-7.8-15.6c-5.4-8.7-11.5-15.1-18-19.3c-6.6-4.2-14.1-6.3-22.7-6.3
			c-12.5,0-22.3,4.2-29.5,12.7c-3,3.5-5.4,7.5-7.1,12.2c-1.7,4.7-2.6,9.4-2.6,14c0,18.6,12,33.6,35.9,45l23.5,11.4
			c18.1,8.6,31.2,18.1,39.2,28.4c9.1,11.6,13.7,25.1,13.7,40.5c0,10.2-2.1,20-6.2,29.3c-5.8,13-14.5,23-26.1,30.1
			c-11.6,7.1-25.2,10.6-40.9,10.6c-14.4,0-28.2-2.8-41.4-8.5c-6.9-3-11-4.7-12.4-5.2c-1.3-0.4-2.8-0.7-4.5-0.7c-5.3,0-9,2.7-11,8
			H-483.6z"/>
		<path class="st1" d="M-283.1,1892.2c-0.4,5.5-0.7,9.4-0.7,11.9c0,9.7,1.4,19.2,4.2,28.4c2.8,9.2,6.7,16.9,11.6,23.1
			c5,6.2,11.2,11.1,18.6,14.7c7.4,3.6,15.1,5.3,23.2,5.3c6,0,11.7-1,17.1-3c5.4-2,9.9-4.8,13.4-8.4c4-3.9,7.4-10.1,10.3-18.7
			l3.5,1.2c-2.9,13-9.1,22.9-18.6,29.5c-9.5,6.6-22.2,9.9-38,9.9c-13.7,0-25.5-2.2-35.3-6.5c-9.8-4.3-18.1-11-24.9-20.1
			c-9.5-12.6-14.2-28.1-14.2-46.5c0-25.1,9-44.7,26.9-59c13-10.4,27.9-15.5,44.6-15.5c8.9,0,17.2,1.6,24.7,4.8
			c7.6,3.2,14,7.8,19.2,13.8c8.1,9.4,12.2,21.1,12.2,35.1H-283.1z M-210.2,1885.7c-0.8-11.1-2.8-19.7-6.2-25.7c-3-5.5-7-9.8-12-13
			c-5-3.2-10.3-4.8-16-4.8c-9.5,0-17.9,4.1-25,12.4c-7.2,8.2-11.4,18.6-12.7,31.1H-210.2z"/>
		<path class="st1" d="M-116.7,1838.6c1.6,6.5,2.4,12.5,2.4,18.1v2.7c13.8-13.9,30.2-20.8,49.3-20.8c14.3,0,25.7,3.3,34.4,10
			c8.6,6.6,12.9,15.9,12.9,28v70.8c0,7.6,0.4,13.1,1.3,16.6c0.9,3.5,2.6,6.4,5.2,8.8c3.1,3,8.9,5.3,17.2,6.8v3.5h-73.9v-3.5
			c6.7-0.9,11.5-2.1,14.4-3.8c2.9-1.6,5.2-4.4,7-8.3c1.2-2.6,2.1-6.4,2.6-11.6c0.5-5.2,0.8-12.6,0.8-22.3v-35.4
			c0-12.1-0.4-21-1.2-26.7c-0.8-5.7-2.4-10.2-4.8-13.7c-2.6-3.9-6.2-6.9-11-9.1c-4.8-2.2-10.1-3.3-15.8-3.3c-6.2,0-12,1.2-17.4,3.7
			c-5.4,2.4-9.6,5.8-12.8,10c-3.3,4.5-5.5,9.5-6.6,15.1c-1.1,5.6-1.6,14.9-1.6,28v32.7l0.2,12.3c0,7.6,0.4,13.1,1.3,16.6
			c0.9,3.5,2.6,6.4,5.2,8.8c3.1,3,8.9,5.3,17.2,6.8v3.5h-73.9v-3.5c6.7-0.9,11.5-2.1,14.4-3.7c2.9-1.6,5.2-4.4,7-8.2
			c1.2-2.5,2.1-6.4,2.6-11.6c0.5-5.2,0.8-12.6,0.8-22.4v-41.1c0-11.4-0.3-19.4-0.8-24c-0.6-4.6-1.8-8.3-3.7-11.2
			c-1.9-3.1-4.2-5.3-6.9-6.7c-2.7-1.4-6.5-2.2-11.5-2.6v-3.5L-116.7,1838.6z"/>
		<path class="st1" d="M57.1,1841.1h42.4v6.3H57.1v97.2c0,11.7,2,20.1,6,25.1c2.1,2.8,4.9,5,8.3,6.5c3.4,1.6,7.2,2.3,11.2,2.3
			c5,0,9.2-1,12.5-3.1s7-5.8,11-11.3l2.5,2.2c-3.7,6.7-8.8,11.6-15.5,14.9c-6.6,3.2-14.9,4.8-24.8,4.8c-13.1,0-22.7-2.6-28.7-7.7
			c-3.2-2.7-5.3-5.9-6.3-9.6s-1.5-10.4-1.5-20.1v-101.3H13.8v-2.7c7.2-2.3,13.9-6.9,20.1-13.5c3.7-4.1,6.7-8.2,8.9-12.3
			c2.2-4.1,4.4-9.3,6.4-15.8l1.7-5.5h6.2V1841.1z"/>
		<path class="st1" d="M138,1892.2c-0.4,5.5-0.7,9.4-0.7,11.9c0,9.7,1.4,19.2,4.2,28.4c2.8,9.2,6.7,16.9,11.6,23.1
			c5,6.2,11.2,11.1,18.6,14.7c7.4,3.6,15.1,5.3,23.2,5.3c6,0,11.7-1,17.1-3c5.4-2,9.9-4.8,13.4-8.4c4-3.9,7.4-10.1,10.3-18.7
			l3.5,1.2c-2.9,13-9.1,22.9-18.6,29.5c-9.5,6.6-22.2,9.9-38,9.9c-13.7,0-25.5-2.2-35.3-6.5c-9.8-4.3-18.1-11-24.9-20.1
			c-9.5-12.6-14.2-28.1-14.2-46.5c0-25.1,9-44.7,26.9-59c13-10.4,27.9-15.5,44.6-15.5c8.9,0,17.2,1.6,24.7,4.8
			c7.6,3.2,14,7.8,19.2,13.8c8.1,9.4,12.2,21.1,12.2,35.1H138z M210.8,1885.7c-0.8-11.1-2.8-19.7-6.2-25.7c-3-5.5-7-9.8-12-13
			c-5-3.2-10.3-4.8-16-4.8c-9.5,0-17.9,4.1-25,12.4c-7.2,8.2-11.4,18.6-12.7,31.1H210.8z"/>
		<path class="st1" d="M304.4,1838.6c1.6,6.5,2.4,12.5,2.4,18.1v2.7c13.8-13.9,30.2-20.8,49.3-20.8c14.3,0,25.7,3.3,34.4,10
			c8.6,6.6,12.9,15.9,12.9,28v70.8c0,7.6,0.4,13.1,1.3,16.6c0.9,3.5,2.6,6.4,5.2,8.8c3.1,3,8.9,5.3,17.2,6.8v3.5h-73.9v-3.5
			c6.7-0.9,11.5-2.1,14.4-3.8c2.9-1.6,5.2-4.4,7-8.3c1.2-2.6,2.1-6.4,2.6-11.6c0.5-5.2,0.8-12.6,0.8-22.3v-35.4
			c0-12.1-0.4-21-1.2-26.7c-0.8-5.7-2.4-10.2-4.8-13.7c-2.6-3.9-6.2-6.9-11-9.1c-4.8-2.2-10.1-3.3-15.8-3.3c-6.2,0-12,1.2-17.4,3.7
			c-5.4,2.4-9.6,5.8-12.8,10c-3.3,4.5-5.5,9.5-6.6,15.1c-1.1,5.6-1.6,14.9-1.6,28v32.7l0.2,12.3c0,7.6,0.4,13.1,1.3,16.6
			c0.9,3.5,2.6,6.4,5.2,8.8c3.1,3,8.9,5.3,17.2,6.8v3.5h-73.9v-3.5c6.7-0.9,11.5-2.1,14.4-3.7c2.9-1.6,5.2-4.4,7-8.2
			c1.2-2.5,2.1-6.4,2.6-11.6c0.5-5.2,0.8-12.6,0.8-22.4v-41.1c0-11.4-0.3-19.4-0.8-24c-0.6-4.6-1.8-8.3-3.7-11.2
			c-1.9-3.1-4.2-5.3-6.9-6.7c-2.7-1.4-6.5-2.2-11.5-2.6v-3.5L304.4,1838.6z"/>
		<path class="st1" d="M559.9,1951.5l3.3,1.2c-3.9,11.8-9.9,20.3-17.9,25.6c-8,5.2-19,7.9-33.1,7.9c-22.5,0-40.2-6.7-53-20.1
			c-12.5-13.1-18.7-29.7-18.7-49.8c0-9.8,1.7-19.5,5.2-29.1c3.5-9.6,8.2-17.8,14.2-24.6c6.8-7.8,15.1-13.8,25-17.9
			c9.9-4.1,20.6-6.2,32.3-6.2c16.1,0,28.8,3.6,37.9,10.9c5.6,4.5,8.4,9.4,8.4,14.7c0,3.6-1.2,6.5-3.5,8.9c-2.3,2.4-5.2,3.6-8.5,3.6
			c-7.2,0-12.6-5.3-16-15.9c-1.6-4.9-2.8-8.2-3.8-10c-0.9-1.8-2.3-3.3-4.1-4.7c-3.4-2.6-7.7-3.8-12.7-3.8c-6.6,0-12.6,1.8-18.2,5.5
			c-4.9,3.2-9,7.3-12.4,12.1c-3.4,4.8-6.4,10.9-8.9,18.3c-3.9,11.3-5.8,22.3-5.8,33.1c0,9.9,1.8,19.6,5.3,29.1
			c3.6,9.5,8.4,17.4,14.5,23.7c9.6,10,20.8,15,33.7,15c10.7,0,19.5-3.4,26.5-10.2C553.3,1965.4,556.7,1959.6,559.9,1951.5z"/>
		<path class="st1" d="M612.7,1892.2c-0.4,5.5-0.7,9.4-0.7,11.9c0,9.7,1.4,19.2,4.2,28.4c2.8,9.2,6.7,16.9,11.6,23.1
			c5,6.2,11.2,11.1,18.6,14.7c7.4,3.6,15.1,5.3,23.2,5.3c6,0,11.7-1,17.1-3c5.4-2,9.9-4.8,13.4-8.4c4-3.9,7.4-10.1,10.3-18.7
			l3.5,1.2c-2.9,13-9.1,22.9-18.6,29.5c-9.5,6.6-22.2,9.9-38,9.9c-13.7,0-25.5-2.2-35.3-6.5c-9.8-4.3-18.1-11-24.9-20.1
			c-9.5-12.6-14.2-28.1-14.2-46.5c0-25.1,9-44.7,26.9-59c13-10.4,27.9-15.5,44.6-15.5c8.9,0,17.2,1.6,24.7,4.8
			c7.6,3.2,14,7.8,19.2,13.8c8.1,9.4,12.2,21.1,12.2,35.1H612.7z M685.5,1885.7c-0.8-11.1-2.8-19.7-6.2-25.7c-3-5.5-7-9.8-12-13
			c-5-3.2-10.3-4.8-16-4.8c-9.5,0-17.9,4.1-25,12.4c-7.2,8.2-11.4,18.6-12.7,31.1H685.5z"/>
		<path class="st1" d="M806.8,1870.7v60c0,11.4,0.6,19.8,1.9,25.3c1.3,5.5,3.6,10.1,7.1,13.6c3,3.1,6.5,5.4,10.4,6.9
			c4,1.5,9.2,2.4,15.6,2.8v3.8H735.2v-3.8c6.5-0.3,11.7-1.3,15.6-2.8c4-1.5,7.4-3.8,10.4-6.9c3.6-3.6,6-8.1,7.2-13.5
			c1.2-5.5,1.8-13.9,1.8-25.4v-123.1c0-9.6-0.4-17-1.3-22.1c-0.8-5.2-2.3-9.4-4.3-12.6c-2.9-4.5-6.6-7.8-11-9.9
			c-4.5-2.2-10.3-3.5-17.4-3.9h-1.2v-3.8h100.8c17.6,0,30.6,0.9,38.9,2.7c8.4,1.8,16,5.3,22.9,10.7c15.8,12,23.7,28.1,23.7,48.1
			c0,20.4-8,35.3-24.1,44.8c-8.4,4.9-18.5,7.9-30.4,8.9c-3.8,0.3-12.9,0.5-27.4,0.5H806.8z M806.8,1865.3h16.4
			c11,0,19.5-0.8,25.5-2.4c6-1.6,11.3-4.6,16-8.9c10.9-9.9,16.4-23.1,16.4-39.6c0-9.1-1.6-17.5-4.8-25.1
			c-3.2-7.6-7.7-13.8-13.6-18.6c-6.8-5.7-14.9-9-24.2-10c-2.6-0.2-8.4-0.3-17.5-0.3h-14V1865.3z"/>
		<path class="st1" d="M977.1,1864.3c4-7,8.5-12.3,13.5-15.9c9.2-6.6,19.8-9.8,31.6-9.8c7.2,0,12.8,1.6,16.5,4.8
			c3.5,2.9,5.2,6.5,5.2,10.7c0,3.1-1,5.7-3.1,7.7c-2.1,2-4.7,3-7.9,3c-3.8,0-7.1-1.6-9.9-4.7l-5.2-5.7c-4.1-4.3-9-6.5-14.5-6.5
			c-7.6,0-13.5,4.9-17.7,14.7c-4.2,9.8-6.3,23.4-6.3,40.9v31.2l0.2,12.7c0,7.6,0.4,13.1,1.3,16.6c0.9,3.5,2.6,6.4,5.2,8.8
			c3.1,3,8.9,5.3,17.2,6.8v3.5h-73.9v-3.5c6.7-0.9,11.5-2.1,14.4-3.7c2.9-1.6,5.2-4.4,7-8.2c1.2-2.5,2.1-6.4,2.6-11.6
			c0.5-5.2,0.8-12.6,0.8-22.4v-41.1c0-11.4-0.3-19.4-0.8-24c-0.6-4.6-1.8-8.3-3.7-11.2c-1.9-3.1-4.2-5.3-6.9-6.7
			c-2.7-1.4-6.5-2.2-11.5-2.6v-3.5l43.1-6C976.1,1848.6,977.1,1857.2,977.1,1864.3z"/>
		<path class="st1" d="M1083.7,1892.2c-0.4,5.5-0.7,9.4-0.7,11.9c0,9.7,1.4,19.2,4.2,28.4c2.8,9.2,6.7,16.9,11.6,23.1
			c5,6.2,11.2,11.1,18.6,14.7c7.4,3.6,15.1,5.3,23.2,5.3c6,0,11.7-1,17.1-3c5.4-2,9.9-4.8,13.4-8.4c4-3.9,7.4-10.1,10.3-18.7
			l3.5,1.2c-2.9,13-9.1,22.9-18.6,29.5c-9.5,6.6-22.2,9.9-38,9.9c-13.7,0-25.5-2.2-35.3-6.5c-9.8-4.3-18.1-11-24.9-20.1
			c-9.5-12.6-14.2-28.1-14.2-46.5c0-25.1,9-44.7,26.9-59c13-10.4,27.9-15.5,44.6-15.5c8.9,0,17.2,1.6,24.7,4.8
			c7.6,3.2,14,7.8,19.2,13.8c8.1,9.4,12.2,21.1,12.2,35.1H1083.7z M1156.6,1885.7c-0.8-11.1-2.8-19.7-6.2-25.7c-3-5.5-7-9.8-12-13
			c-5-3.2-10.3-4.8-16-4.8c-9.5,0-17.9,4.1-25,12.4c-7.2,8.2-11.4,18.6-12.7,31.1H1156.6z"/>
		<path class="st1" d="M1214,1983.1v-47.3h2.7c3.1,11.6,7,20.8,11.7,27.7c8.6,12.6,18.6,18.9,30,18.9c7,0,13.1-2.1,18.2-6.3
			c5.6-4.7,8.3-11.3,8.3-19.9c0-7-2-13.1-6-18.4c-2.2-2.8-5-5.3-8.4-7.7s-9.1-5.6-17.1-9.9c-14-7.5-23.3-13.7-28-18.7
			c-6.7-7.1-10-15.4-10-24.7c0-10,3.3-18.7,10-25.9c7.7-8.2,17.9-12.4,30.6-12.4c5.7,0,11,1,15.9,3l5.7,2.5c1.8,0.7,3.3,1,4.7,1
			c2.1,0,4.1-1.7,6-5h3.3l1.8,37.9h-3.5c-1.2-5.3-2.5-9.6-3.9-12.9c-1.4-3.2-3.4-6.3-5.9-9.4c-3.4-4.2-7.4-7.5-12-9.9
			c-4.6-2.4-9.1-3.6-13.5-3.6c-6.2,0-11.5,2.3-15.9,6.8c-4.4,4.5-6.6,10.1-6.6,16.6c0,5.5,2,10.4,5.9,14.8c3.9,4.4,10,8.4,18.3,12.1
			l17.7,8c10.6,4.8,18.4,10.8,23.7,17.9c5.2,7.1,7.8,15.5,7.8,25.2c0,11.7-3.8,21.4-11.4,29.1c-8.7,8.9-19.8,13.4-33.4,13.4
			c-7.4,0-14.8-1.4-22.4-4.3c-4.9-1.9-7.9-3-8.9-3.3c-1-0.3-2.3-0.4-3.8-0.4c-3.9,0-6.9,1.7-8.9,5H1214z"/>
		<path class="st1" d="M1335,1983.1v-47.3h2.7c3.1,11.6,7,20.8,11.7,27.7c8.6,12.6,18.6,18.9,30,18.9c7,0,13.1-2.1,18.2-6.3
			c5.6-4.7,8.3-11.3,8.3-19.9c0-7-2-13.1-6-18.4c-2.2-2.8-5-5.3-8.4-7.7c-3.4-2.3-9.1-5.6-17.1-9.9c-14-7.5-23.3-13.7-28-18.7
			c-6.7-7.1-10-15.4-10-24.7c0-10,3.3-18.7,10-25.9c7.7-8.2,17.9-12.4,30.6-12.4c5.7,0,11,1,15.9,3l5.7,2.5c1.8,0.7,3.3,1,4.7,1
			c2.1,0,4.1-1.7,6-5h3.3l1.8,37.9h-3.5c-1.2-5.3-2.5-9.6-3.9-12.9c-1.4-3.2-3.4-6.3-5.9-9.4c-3.4-4.2-7.4-7.5-12-9.9
			c-4.6-2.4-9.1-3.6-13.5-3.6c-6.2,0-11.5,2.3-15.9,6.8c-4.4,4.5-6.6,10.1-6.6,16.6c0,5.5,2,10.4,5.9,14.8c3.9,4.4,10,8.4,18.3,12.1
			l17.7,8c10.6,4.8,18.4,10.8,23.7,17.9c5.2,7.1,7.8,15.5,7.8,25.2c0,11.7-3.8,21.4-11.4,29.1c-8.7,8.9-19.8,13.4-33.4,13.4
			c-7.4,0-14.8-1.4-22.4-4.3c-4.9-1.9-7.9-3-8.9-3.3c-1-0.3-2.3-0.4-3.8-0.4c-3.9,0-6.9,1.7-8.9,5H1335z"/>
	</g>
</g>
</svg>
